<svg version="1.1" id="Admissions" xmlns="http://www.w3.org/2000/svg" x="0" y="0" viewBox="0 0 69.6 66.5" xml:space="preserve"><g fill="#002E5E"><path d="M10.6 55.4c-2.1 0-2.5-1.2-2.4-2.7h1.7c0 .8 0 1.4 1 1.4.6 0 .9-.4.9-.9 0-1.5-3.4-1.6-3.4-4C8.3 48 8.9 47 11 47c1.7 0 2.5.7 2.4 2.5h-1.7c0-.6-.1-1.2-.8-1.2-.6 0-.9.3-.9.9 0 1.5 3.4 1.4 3.4 4 0 2-1.5 2.2-2.8 2.2zM14.7 51.2c0-2.2 0-4.2 2.8-4.2 1.7 0 2.4 1 2.4 2.7h-1.7c0-1.1-.2-1.5-.7-1.5-1 0-1.1.9-1.1 3s.1 3 1.1 3c.8 0 .8-1 .8-1.7H20c0 2.2-.9 2.9-2.5 2.9-2.8 0-2.8-2.1-2.8-4.2zM24.8 50.4v-3.3h1.7v8.2h-1.7v-3.6h-2v3.6h-1.7v-8.2h1.7v3.3h2zM28 51.2c0-2.2 0-4.2 2.8-4.2s2.8 2.1 2.8 4.2 0 4.2-2.8 4.2-2.8-2.1-2.8-4.2zm3.9 0c0-2.1-.1-3-1.1-3s-1.1.9-1.1 3 .1 3 1.1 3 1.1-.9 1.1-3zM34.9 51.2c0-2.2 0-4.2 2.8-4.2s2.8 2.1 2.8 4.2 0 4.2-2.8 4.2-2.8-2.1-2.8-4.2zm3.9 0c0-2.1-.1-3-1.1-3s-1.1.9-1.1 3 .1 3 1.1 3 1.1-.9 1.1-3zM42 55.3v-8.2h1.7v6.8h2.6v1.4H42zM49.4 51.2c0-2.2 0-4.2 2.8-4.2s2.8 2 2.8 4.2c0 2.1 0 4.2-2.8 4.2s-2.8-2.1-2.8-4.2zm3.9 0c0-2.1-.1-3-1.1-3s-1.1.9-1.1 3 .1 3 1.1 3 1.1-.9 1.1-3zM56.4 55.3v-8.2h4.2v1.3h-2.5v2.1h2.4v1.3h-2.4v3.6h-1.7z"/></g><path fill="#002E5E" d="M.9 65.4v-8.2h1.7v8.2H.9zM4.1 65.4v-8.2h2.3l2.2 5.6v-5.6h1.6v8.2H8l-2.2-6v6H4.1zM11.7 65.4v-8.2h4.2v1.3h-2.5v2.1h2.4v1.3h-2.4v3.6h-1.7zM16.9 61.4c0-2.2 0-4.2 2.8-4.2s2.8 2.1 2.8 4.2 0 4.2-2.8 4.2-2.8-2.1-2.8-4.2zm3.9 0c0-2.1-.1-3-1.1-3s-1.1.9-1.1 3 .1 3 1.1 3 1.1-.9 1.1-3zM25.7 65.4H24v-8.2h3.2c1.2 0 1.9.7 1.9 2.1 0 1-.4 1.8-1.5 2 .4 0 1.5.1 1.5 1.6 0 .5 0 2.1.2 2.4h-1.7c-.2-.5-.2-1.1-.2-1.6 0-1 .1-1.8-1.2-1.8h-.4v3.5zm0-4.6h.8c.7 0 .9-.7.9-1.2 0-.8-.3-1.1-.9-1.1h-.8v2.3zM30.4 65.4v-8.2h2.7l1.3 5.5 1.4-5.5h2.7v8.2h-1.7v-6.3l-1.6 6.3h-1.6l-1.5-6.3v6.3h-1.7zM39.5 65.4l2.3-8.2H44l2.2 8.2h-1.8l-.4-1.8h-2.3l-.5 1.8h-1.7zm3.3-6.5-.8 3.5h1.6l-.8-3.5zM51.6 57.3v1.4h-1.9v6.8H48v-6.8h-1.9v-1.4h5.5zM52.7 65.4v-8.2h1.7v8.2h-1.7zM55.8 61.4c0-2.2 0-4.2 2.8-4.2s2.8 2.1 2.8 4.2 0 4.2-2.8 4.2-2.8-2.1-2.8-4.2zm3.9 0c0-2.1-.1-3-1.1-3s-1.1.9-1.1 3 .1 3 1.1 3 1.1-.9 1.1-3zM62.8 65.4v-8.2h2.3l2.2 5.6v-5.6h1.6v8.2h-2.2l-2.2-6v6h-1.7z"/><path fill="#FFCF01" d="M34.9 34.2 23.3 18.3v11.5h4.6v11.4H6.6V29.9h4.3V12.1H6.6V.7h16.8l11.6 16L46.6.7h16.8v11.4h-4.3v17.8h4.3v11.4H41.9V29.9h4.6V18.3L34.9 34.2z"/></svg>