<svg xmlns="http://www.w3.org/2000/svg" width="1924.86" height="396.672" viewBox="0 0 509.286 104.953"><path d="M0 0c0-8.341 15.765-8.573 15.765 0C15.765 8.279 0 8.098 0 0m2.681-40.818c-1.88 0-3.314 1.281-3.314 3.267v9.504l-2.8.294c-1.94.522-2.111 3.26 0 3.26h8.402c1.088 0 1.655-.525 1.655-1.627v-10.558h29.885c2.457 0 2.799-4.14 0-4.14zM-6.746-.12c0 7.289 6.23 9.502 12.286 9.796 0 3.266 4.174 3.147 4.174 0 6.335.175 12.849-3.091 12.792-9.796-.166-13.523-29.252-13.988-29.252 0M31.82-30.497h-4.054v7.52h-8.743c-2.458 0-2.397 3.793 0 3.793h8.743v5.014c-.971-.643-2.287-.936-3.944-.936H11.31V-20c0-1.923-1.084-2.858-3.256-2.858H4.458v7.752H-9.714c-2.856 0-2.399 3.912 0 3.912h33.536c1.318 0 2.63.228 3.944.755V7.52l-3.825.352c-1.544 1.339.399 3.437 1.996 2.795h7.541c1.088-.408 1.655-1.167 1.655-2.16v-31.655c0-4.899-1.084-7.349-3.313-7.349" style="fill:#144e8c;fill-opacity:1;fill-rule:nonzero;stroke:none" transform="matrix(1.06107 0 0 -1.06107 122.047 20.297)"/><path d="M0 0c0-8.512 14.855-8.451 14.855 0C14.855 9.504 0 9.096 0 0m-7.369-.176c-.055 6.181 6.28 10.382 12.971 11.255-.579 2.621 4.68 2.859 4.339 0C15.482 10.32 22.23 6.356 21.997-.176c-.458-14.636-29.198-13.933-29.366 0m14.625 22.74H3.601v13.764h-20.455c-2.741 0-2.856 4.197 0 4.197h24.11c2.226 0 3.315-1.112 3.315-3.268V25.825c0-1.978-1.43-3.261-3.315-3.261m15.486.699v-8.512c0-2.156-1.091-3.262-3.257-3.262H15.37v4.66c-2.516-.582-4.972-1.109-7.545-1.109h-28.108c-2.858 0-2.912 4.258 0 4.258H-9.88v6.527l-2.635.352c-1.366.295-1.423 2.393 0 2.393h7.885c1.085 0 1.661-.523 1.661-1.577v-7.695H7.825c3.434 0 5.946.408 7.545 1.169v18.775l-3.833.465c-1.596 1.283.46 3.437 2.002 2.796h7.6c1.091-.346 1.603-1.048 1.603-2.16V27.289h7.254c2.741 0 2.741-4.026 0-4.026z" style="fill:#144e8c;fill-opacity:1;fill-rule:nonzero;stroke:none" transform="matrix(1.06107 0 0 -1.06107 191.066 54.016)"/><path d="M0 0h-3.311v31.894h-5.941v-21.63c0-4.139-1.086-6.238-3.256-6.238h-3.43v17.376c-2.111-1.053-4.113-1.576-5.945-1.576h-14.166c-2.228 0-3.316 1.111-3.316 3.267V47.58l-2.514.35c-1.2.699-1.6 2.798.173 2.798h18.624c2.576 0 2.742-4.079 0-4.079h-9.652V24.022h10.851c2.633 0 4.635.584 5.945 1.691v25.015l-3.599.118c-1.43 1.163.17 3.494 2.289 2.796h6.568c.967-.346 1.428-1.049 1.428-2.161V36.152h5.83v14.399l-4.234.295c-1.596 1.107.342 3.556 2.06 2.796h7.252c1.09-.346 1.657-1.049 1.657-2.161V6.239C3.313 2.1 2.234 0 0 0" style="fill:#144e8c;fill-opacity:1;fill-rule:nonzero;stroke:none" transform="matrix(1.06107 0 0 -1.06107 270.45 65.835)"/><path d="M0 0v-10.435c0-2.156-1.084-3.266-3.316-3.266h-4.059v26.765l-3.826.352c-1.543 1.339.4 3.437 2.004 2.795h7.711C-.518 15.743 0 15.044 0 14.051V4.14h7.197c2.801 0 2.688-4.14 0-4.14Zm-34.51-1.281c0-8.452 12.508-8.452 12.508 0 0 8.515-12.508 8.63-12.508 0m31.194-35.916h-4.059v16.968H-36.17c-2.857 0-2.914 4.258 0 4.258h32.854c1.888 0 3.316-1.282 3.316-3.266V-31.48c0-3.793-1.084-5.717-3.316-5.717M-19.369 6.244c3.371-1.986 4.916-4.141 4.916-8.162 0-13.18-27.254-12.77-27.254 0 0 3.55 1.822 6.238 5.424 8.162h-6.738c-2.631 0-2.86 4.077 0 4.077h11.998v3.385l-2.516.526c-1.543.348-1.371 2.621 0 2.621h8.398c1.084 0 1.657-.522 1.657-1.633v-4.899h11.314c2.856 0 2.627-4.077 0-4.077z" style="fill:#144e8c;fill-opacity:1;fill-rule:nonzero;stroke:none" transform="matrix(1.06107 0 0 -1.06107 330.325 26.18)"/><path d="M0 0h-4.109v26.007H-34.33c-3.147 0-3.147 4.605 0 4.605H0c1.893 0 3.258-1.396 3.258-3.324V6.238C3.258 2.099 2.174 0 0 0m-37.65-11.603c-2.852 0-2.914 4.259 0 4.259h9.254V6.531l-3.596.524c-1.428.237-1.66 2.8 0 2.8h9.088c1.084 0 1.654-.521 1.654-1.632V-7.168h6.57V6.941l-3.144.295c-1.424.578-1.539 2.796 0 2.796h8.801c1.091 0 1.601-.585 1.601-1.694V-7.344H5.891c3.142 0 2.968-4.259 0-4.259z" style="fill:#144e8c;fill-opacity:1;fill-rule:nonzero;stroke:none" transform="matrix(1.06107 0 0 -1.06107 382.365 42.944)"/><path d="M0 0h-3.77v8.28h-6.289c-2.625 0-2.857 3.964 0 3.964h6.457v6.589h-6.623c-2.459 0-2.572 3.789 0 3.789h6.623v4.956l-3.939.351c-1.373.988.455 2.45 1.883 2.33h7.26c1.084-.288 1.597-.877 1.597-1.864V5.654C3.199 1.865 2.113 0 0 0m-20.795-11.892c0-9.272 15.193-9.039 15.193 0 0 10.082-15.193 10.197-15.193 0m-7.312-.238c-.118 7.521 6.912 10.843 13.253 11.722 0 3.323 3.995 3.381 3.995 0C-4.857-1.287 1.314-5.246 1.143-12.13c-.342-14.868-29.084-14.223-29.25 0m7.595 27.99h-11.369V7.054h11.369zm3.996-12.598h-19.021c-1.774 0-3.143 1.287-3.143 3.152V24.72l-2.799.351c-1.546.408-1.656 2.8 0 2.8h8.114c.801 0 1.484-.526 1.484-1.404V19.82h11.369v5.602l-3.14.172c-1.434.293-1.545 2.744.056 2.744h8.742c1.028 0 1.541-.467 1.541-1.4V6.414c0-1.865-1.369-3.152-3.203-3.152" style="fill:#144e8c;fill-opacity:1;fill-rule:nonzero;stroke:none" transform="matrix(1.06107 0 0 -1.06107 443.024 41.085)"/><path d="M0 0c0-8.341 15.762-8.573 15.762 0C15.762 8.279 0 8.098 0 0m2.686-40.818c-1.887 0-3.313 1.281-3.313 3.267v9.504l-2.801.294c-1.947.522-2.113 3.26 0 3.26h8.397c1.088 0 1.656-.525 1.656-1.627v-10.558h29.873c2.471 0 2.803-4.14 0-4.14zM-6.742-.12c0 7.289 6.226 9.502 12.279 9.796 0 3.266 4.176 3.147 4.176 0 6.336.175 12.851-3.091 12.797-9.796-.174-13.523-29.252-13.988-29.252 0M31.82-30.497h-4.056v7.52h-8.746c-2.457 0-2.391 3.793 0 3.793h8.746v5.014c-.967-.643-2.289-.936-3.944-.936H11.305V-20c0-1.923-1.082-2.858-3.256-2.858H4.457v7.752H-9.715c-2.855 0-2.394 3.912 0 3.912H23.82c1.321 0 2.633.228 3.944.755V7.52l-3.825.352c-1.543 1.339.403 3.437 1.993 2.795h7.545c1.086-.408 1.656-1.167 1.656-2.16v-31.655c0-4.899-1.088-7.349-3.313-7.349" style="fill:#144e8c;fill-opacity:1;fill-rule:nonzero;stroke:none" transform="matrix(1.06107 0 0 -1.06107 467.79 20.297)"/><path d="M0 0v-35.458s-.446-7.473 11.041-13.719c0 0 9.349-3.38 10.775-5.7 1.423 2.32 10.776 5.7 10.776 5.7 11.697 6.611 11.04 13.719 11.04 13.719V0H0" style="fill:#144e8c;fill-opacity:1;fill-rule:nonzero;stroke:none" transform="matrix(1.06107 0 0 -1.06107 29.294 27.876)"/><path d="M0 0c-1.308 2.134-9.911 5.242-9.911 5.242C-18.92 9.998-20.07 17.869-20.07 17.869v32.615H-.079L0 0" style="fill:#d22329;fill-opacity:1;fill-rule:nonzero;stroke:none" transform="matrix(1.06107 0 0 -1.06107 52.526 83.776)"/><path d="M0 0c1.308 2.134 9.914 5.242 9.914 5.242 9.01 4.756 10.16 12.627 10.16 12.627v32.615H.079L0 0" style="fill:#144e8c;fill-opacity:1;fill-rule:nonzero;stroke:none" transform="matrix(1.06107 0 0 -1.06107 52.442 83.776)"/><path d="M0 0s.893.606 1.715.606c1.225-.01 2.312-.896.154-3.28-3.739-3.471-6.848-7.87-4.272-12.828 0 0 1.996-5.167 9.349-4.009 0 0 6.41.533 6.679 8.283 0 0-.08 2.704-.249 4.308-.17 1.61-.285 2.909-.285 2.909s-.801 5.077 2.94 9.351c3.739 4.277 4.81 7.748.269 13.363 0 0 2.671-6.682-1.873-9.35C9.886 6.681 7.749.797 8.283-5.082c0 0-2.751-.019-4.024-1.087-2.43-2.043-2.458-4.641-1.106-6.08 0 0 3.383-2.866 5.931 2.088 0 0-.205-5.111-5.508-3.945 0 0-3.359.884-2.814 5.02 0 0 0 2.917 4.047 5.075 2.691 1.433 4.007 5.347.269 7.216 0 0 .272.443 1.102.443 1.36 0 3.004 1.811 2.889 3.459 0 0-1.142-1.586-3.636-1.586-2.493 0-2.303-1.869-2.125-2.402 0 0-1.522-.435-2.339-1.459 0 0-.618-.657-.969-1.66" style="fill:#fff;fill-opacity:1;fill-rule:nonzero;stroke:none" transform="matrix(1.06107 0 0 -1.06107 39.78 54.718)"/><path d="M0 0s7.298.172 7.152 8.322c0 0-.083 2.053-.177 3.232-.1 1.18-.364 3.352-.364 3.352s-1.122 4.55 4.426 6.831c0 0 8.017 1.067 8.017 8.729 0 0-2.848-3.74-8.017-5.167 0 0-7.48-.712-8.014-8.017 0 0 .063-3.277.534-7.129 0 0 1.248-6.417-3.557-10.153" style="fill:#fff;fill-opacity:1;fill-rule:nonzero;stroke:none" transform="matrix(1.06107 0 0 -1.06107 51.595 74.947)"/><path d="M0 0s-2.667-3.387-6.058-3.922c0 0-4.877-.703-4.513-5.154 0 0 .395-2.866.637-6.116 0 0 .687-6.302-3.063-8.864 0 0 6.765.534 6.587 8.733 0 0-.217 2.451-.513 5.291-.328 3.119 3.805 4.261 3.686 4.232 0 0 3.624.834 3.237 5.8" style="fill:#fff;fill-opacity:1;fill-rule:nonzero;stroke:none" transform="matrix(1.06107 0 0 -1.06107 70.866 48.67)"/><path d="M0 0v-32.022c-.005-.297-.269-7.567-9.816-12.09-.779-.277-7.465-2.739-9.662-4.873-2.201 2.134-8.887 4.596-9.712 4.896-9.302 4.504-9.753 11.785-9.765 12.09V0Zm.596 1.186h-40.741v-33.208c.016-.361.467-8.314 10.497-13.161 3.433-1.246 8.784-3.586 9.665-5.021l.505-.822.506.822c.886 1.435 6.228 3.775 9.607 4.996C.939-40.329 1.185-32.37 1.189-32.03V1.186H.596" style="fill:#fff;fill-opacity:1;fill-rule:nonzero;stroke:none" transform="matrix(1.06107 0 0 -1.06107 73.11 30.837)"/><path d="M0 0c0 26.989 21.955 48.954 48.932 48.954 26.985 0 48.939-21.965 48.939-48.954 0-26.993-21.954-48.958-48.939-48.958C21.955-48.958 0-26.993 0 0Z" style="fill:none;stroke:#144e8c;stroke-width:1px;stroke-linecap:butt;stroke-linejoin:miter;stroke-miterlimit:10;stroke-dasharray:none;stroke-opacity:1" transform="matrix(1.06107 0 0 -1.06107 .53 52.474)"/><path d="M0 0c0 18.485 15.032 33.521 33.509 33.521 18.482 0 33.517-15.036 33.517-33.521 0-18.486-15.035-33.525-33.517-33.525C15.032-33.525 0-18.486 0 0m-1.782 0c0-19.474 15.834-35.313 35.291-35.313 19.465 0 35.295 15.839 35.295 35.313 0 19.466-15.83 35.307-35.295 35.307C14.052 35.307-1.782 19.466-1.782 0" style="fill:#144e8c;fill-opacity:1;fill-rule:nonzero;stroke:none" transform="matrix(1.06107 0 0 -1.06107 16.895 52.474)"/><path d="M0 0a2.403 2.403 0 0 0-4.804 0A2.402 2.402 0 1 0 0 0" style="fill:#144e8c;fill-opacity:1;fill-rule:nonzero;stroke:none" transform="matrix(1.06107 0 0 -1.06107 10.107 49.273)"/><path d="M0 0a2.403 2.403 0 0 0-4.805 0A2.403 2.403 0 1 0 0 0" style="fill:#144e8c;fill-opacity:1;fill-rule:nonzero;stroke:none" transform="matrix(1.06107 0 0 -1.06107 99.901 49.273)"/><path d="m0 0 .174-1.344a607.757 607.757 0 0 0-4.761-1.332c-.621-.167-1.218-.329-1.786-.474v-.016l.402.008c.641.008 1.281.011 1.917.008 1.11 0 2.596-.016 4.457-.04L.57-4.511a489.6 489.6 0 0 0-4.706-1.28c-.594-.163-1.21-.32-1.845-.475l.003-.031c.49.006 1.079.004 1.766-.012.996-.02 2.668-.064 5.027-.13l.162-1.286-9.278.569-.155 1.222c2.197.605 3.672 1 4.41 1.198.814.214 1.672.422 2.565.626v.01a90.436 90.436 0 0 0-2.565-.01c-.818.01-2.371.034-4.651.083l-.15 1.177L0 0" style="fill:#144e8c;fill-opacity:1;fill-rule:nonzero;stroke:none" transform="matrix(1.06107 0 0 -1.06107 12.123 54.337)"/><path d="M0 0c-.304-.397-.394-.8-.265-1.212.126-.408.427-.685.905-.834.62-.201 1.458-.139 2.518.197 1.058.336 1.793.762 2.193 1.282.304.394.391.798.264 1.205-.127.411-.431.687-.909.845-.624.191-1.47.119-2.532-.216C1.119.938.391.515 0 0m5.876 2.556c.641-.321 1.063-.803 1.265-1.44.197-.633.127-1.261-.217-1.893-.53-.978-1.656-1.733-3.384-2.273-1.714-.543-3.065-.562-4.054-.068-.652.32-1.078.799-1.272 1.428-.201.628-.126 1.267.222 1.901.529.972 1.651 1.724 3.366 2.266 1.727.544 3.087.569 4.074.079" style="fill:#144e8c;fill-opacity:1;fill-rule:nonzero;stroke:none" transform="matrix(1.06107 0 0 -1.06107 6.807 66.5)"/><path d="m0 0 .53-1.063-7.983-3.99-.564 1.127 4.579 5.048-.008.024-5.686-2.842-.526 1.062 7.983 3.99.6-1.202-4.5-4.929.003-.009z" style="fill:#144e8c;fill-opacity:1;fill-rule:nonzero;stroke:none" transform="matrix(1.06107 0 0 -1.06107 17.1 72.391)"/><path d="m0 0-.735 1.027 7.259 5.195.73-1.033L4.295 3.07l4.311.237.953-1.33-4.422-.123-2.754-5.196-.957 1.344 2.102 3.787-1.079-.031Z" style="fill:#144e8c;fill-opacity:1;fill-rule:nonzero;stroke:none" transform="matrix(1.06107 0 0 -1.06107 11.193 80.893)"/><path d="m0 0 .973-.944-2.893-4.009c-.383-.518-.751-1.018-1.106-1.484l.011-.015.308.257c.499.406.997.81 1.494 1.207.87.683 2.043 1.6 3.513 2.748l.956-.932a775.879 775.879 0 0 0-2.884-3.94c-.36-.49-.743-1.005-1.145-1.519l.019-.027c.379.316.841.679 1.39 1.099a525.38 525.38 0 0 0 4.011 3.032l.929-.906-7.615-5.34-.877.857A621.676 621.676 0 0 0-.213-6.227a84.714 84.714 0 0 0 1.612 2.09l-.007.006A86.35 86.35 0 0 0-.604-5.736a626.252 626.252 0 0 0-3.687-2.839l-.853.827L0 0" style="fill:#144e8c;fill-opacity:1;fill-rule:nonzero;stroke:none" transform="matrix(1.06107 0 0 -1.06107 21.385 79.049)"/><path d="m0 0 1.309-.894L2.66 2.46l-.02.012Zm-2.556-2.351-1.107.754 6.856 6.123 1.213-.825L1.17-4.897l-1.133.774.702 1.751-1.901 1.302Z" style="fill:#144e8c;fill-opacity:1;fill-rule:nonzero;stroke:none" transform="matrix(1.06107 0 0 -1.06107 25.7 90.736)"/><path d="m0 0 1.075-.514-3.849-8.056-1.138.541.514 6.8-.024.012-2.739-5.736-1.071.514 3.849 8.056 1.214-.581-.522-6.657h.008z" style="fill:#144e8c;fill-opacity:1;fill-rule:nonzero;stroke:none" transform="matrix(1.06107 0 0 -1.06107 36.208 89.956)"/><path d="m0 0 2.442-.728-1.339-4.55-1.087.316.316 1.074c-.091-.298-.324-.536-.703-.717-.43-.207-.897-.234-1.399-.083-.759.219-1.272.782-1.549 1.675-.292.977-.237 2.166.182 3.567.371 1.268.905 2.245 1.604 2.922.791.77 1.652 1.02 2.584.739.815-.234 1.368-.756 1.656-1.559.225-.652.249-1.343.087-2.08L1.569.938c.028.093.036.225.024.382a2.525 2.525 0 0 1-.099.543 1.86 1.86 0 0 1-.285.525 1.261 1.261 0 0 1-.533.337c-.478.142-.941.017-1.379-.37C-1.198 1.914-1.6 1.186-1.9.163c-.309-1.048-.36-1.871-.147-2.461.174-.481.506-.794.992-.936.309-.095.617-.082.925.032.498.185.854.643 1.067 1.37l-1.359.404L0 0" style="fill:#144e8c;fill-opacity:1;fill-rule:nonzero;stroke:none" transform="matrix(1.06107 0 0 -1.06107 39.91 95.929)"/><path d="M0 0c-.076-1.135-.36-1.969-.85-2.508-.462-.501-1.087-.73-1.869-.675-.36.029-.684.127-.98.296a2.134 2.134 0 0 0-.897.925 3.217 3.217 0 0 0-.304.978A5.886 5.886 0 0 0-4.936.217l.404 5.887 1.295-.087-.394-5.753c-.04-.588.039-1.048.228-1.364.174-.304.427-.463.762-.481.428-.037.747.095.969.375.206.257.336.673.371 1.226l.403 5.83 1.293-.086L0 0" style="fill:#144e8c;fill-opacity:1;fill-rule:nonzero;stroke:none" transform="matrix(1.06107 0 0 -1.06107 51.562 99.448)"/><path d="m0 0 1.189.095.72-8.904L.66-8.906l-2.979 6.135-.024-.005.513-6.333-1.181-.098-.723 8.902 1.336.111L.498-6.212H.51Z" style="fill:#144e8c;fill-opacity:1;fill-rule:nonzero;stroke:none" transform="matrix(1.06107 0 0 -1.06107 56.757 93.004)"/><path d="m0 0-1.253-.244-1.703 8.768 1.252.241z" style="fill:#144e8c;fill-opacity:1;fill-rule:nonzero;stroke:none" transform="matrix(1.06107 0 0 -1.06107 62.27 101.685)"/><path d="m0 0 1.261.381.719-9.331-1.15-.351-4.6 8.155 1.305.396L.794-7.045l.012.006z" style="fill:#144e8c;fill-opacity:1;fill-rule:nonzero;stroke:none" transform="matrix(1.06107 0 0 -1.06107 65.121 91.135)"/><path d="m0 0-1.166-.49-.699 1.66 1.165.489Z" style="fill:#144e8c;fill-opacity:1;fill-rule:nonzero;stroke:none" transform="matrix(1.06107 0 0 -1.06107 71.906 98.587)"/><path d="m0 0 2.158-3.356-1.079-.697-4.821 7.521 1.079.686 1.83-2.853 2.03 1.304-1.83 2.86 1.059.678 4.821-7.519-1.059-.679-2.157 3.363z" style="fill:#144e8c;fill-opacity:1;fill-rule:nonzero;stroke:none" transform="matrix(1.06107 0 0 -1.06107 75.36 92.07)"/><path d="M0 0c.482-.11.889-.027 1.213.26.316.282.443.674.384 1.167-.068.649-.474 1.384-1.21 2.214-.739.836-1.43 1.325-2.07 1.479-.486.11-.89.032-1.21-.253-.319-.289-.449-.679-.39-1.178.078-.648.493-1.392 1.229-2.221C-1.315.641-.632.15 0 0m-4.741 4.314c.027.719.292 1.3.79 1.743.493.446 1.099.636 1.817.582 1.103-.08 2.257-.799 3.461-2.155C2.521 3.145 3.095 1.922 3.051.811 3.023.084 2.762-.494 2.272-.932c-.498-.443-1.106-.633-1.83-.582-1.101.086-2.248.803-3.441 2.147-1.205 1.352-1.786 2.582-1.742 3.681" style="fill:#144e8c;fill-opacity:1;fill-rule:nonzero;stroke:none" transform="matrix(1.06107 0 0 -1.06107 82.63 89.432)"/><path d="M0 0c.276-.229.549-.354.818-.391.403-.051.767.114 1.083.498.229.274.355.541.379.791.028.34-.114.641-.439.905-.245.201-.497.281-.77.233-.19-.039-.447-.169-.775-.382l-.601-.357A10.59 10.59 0 0 0-.98.914a2.386 2.386 0 0 0-.716-.209 1.836 1.836 0 0 0-.841.13c-.32.126-.652.335-1.016.632-.53.431-.889.913-1.071 1.439-.252.743-.106 1.448.451 2.119.526.636 1.189.898 1.992.784.599-.084 1.181-.348 1.734-.795l-.766-.926c-.282.191-.542.305-.766.344-.397.047-.748-.106-1.052-.474a1.128 1.128 0 0 1-.281-.692c-.003-.299.142-.566.423-.801.221-.184.435-.267.64-.25.131.002.276.052.462.15l.016.012 1.372.798c.446.276.857.415 1.229.415.517 0 1.059-.233 1.631-.71.874-.72 1.285-1.5 1.237-2.337a2.28 2.28 0 0 0-.541-1.365C2.529-1.58 1.802-1.896.964-1.779c-.589.084-1.174.359-1.742.835L0 0" style="fill:#144e8c;fill-opacity:1;fill-rule:nonzero;stroke:none" transform="matrix(1.06107 0 0 -1.06107 87.017 84.041)"/><path d="M0 0c.209.347.193.675-.043 1-.135.174-.353.355-.656.541-.376.232-.696.324-.957.273-.264-.046-.49-.229-.691-.562l-.514-.826L-.598-.965Zm3.438-3.443L2.766-4.54-4.845.142l1.435 2.329c.304.502.77.758 1.388.775.607.02 1.294-.203 2.05-.665a4.501 4.501 0 0 0 1.28-1.209c.455-.688.502-1.329.13-1.935L.699-1.764l2.739-1.679" style="fill:#144e8c;fill-opacity:1;fill-rule:nonzero;stroke:none" transform="matrix(1.06107 0 0 -1.06107 90.031 76.326)"/><path d="m0 0-.558-1.151-8.041 3.866.557 1.159z" style="fill:#144e8c;fill-opacity:1;fill-rule:nonzero;stroke:none" transform="matrix(1.06107 0 0 -1.06107 96.874 74.14)"/><path d="m0 0-.431-1.209-6.911 2.482-.636-1.77-1.486.534 1.704 4.748 1.485-.535-.636-1.771Z" style="fill:#144e8c;fill-opacity:1;fill-rule:nonzero;stroke:none" transform="matrix(1.06107 0 0 -1.06107 98.76 69.427)"/><path d="m0 0 .308 1.561-3.612-.067-.004-.024Zm3.161-1.428-.265-1.317-8.318 3.926.293 1.44 9.179.371-.269-1.344-1.888-.036-.455-2.258Z" style="fill:#144e8c;fill-opacity:1;fill-rule:nonzero;stroke:none" transform="matrix(1.06107 0 0 -1.06107 96.786 63.313)"/><path d="m0 0 .175 3.013 1.612-.096-.249-4.285-8.912.518.076 1.281Z" style="fill:#144e8c;fill-opacity:1;fill-rule:nonzero;stroke:none" transform="matrix(1.06107 0 0 -1.06107 99.578 56.967)"/><path d="M0 0c-.131-.366-.47-.557-.848-.424l-1.808.632-.245-.521c-.233-.345-.765-.195-.62.217l.573 1.628c.073.212.212.288.423.214l2.005-.705 2.033 5.801c.168.474.978.263.787-.278Zm.02 6.344-.277-.787-1.429.502-.595-1.696c-.167-.478-.885-.214-.72.252l.595 1.697-.953.334c.055-.232.022-.505-.091-.828l-.852-2.427.931-.328c.366-.127.47-.401.32-.824l-.244-.697-1.475.518-.964-2.749c-.193-.554-.905-.206-.743.26l2.284 6.507c.09.258.134.526.125.817L-7.48 8.096l-.329-.721c-.359-.209-.628.307-.395.572l.515 1.464c.149.187.33.245.521.178l6.018-2.11C-.22 7.15.171 6.775.02 6.344m-7.963-4.14c1.585-.558 2.703 2.487 1.074 3.061-1.574.55-2.615-2.521-1.074-3.061M-8.379.888c-1.385.486-1.382 1.841-1.025 3.036-.621.217-.315 1.019.283.81.4 1.242 1.463 2.289 2.733 1.83 2.558-.937.67-6.612-1.991-5.676" style="fill:#144e8c;fill-opacity:1;fill-rule:nonzero;stroke:none" transform="matrix(1.06107 0 0 -1.06107 14.485 42.275)"/><path d="M0 0c1.252-1.166 3.323 1.074 2.079 2.233C.68 3.539-1.34 1.25 0 0m-1.007-1.131c-.918.839-.649 2.369.159 3.494-.466.274.235 1.096.607.652.889.73 2.413 1.2 3.345.267 2.088-2.076-2.035-6.298-4.111-4.413m.764 7.741 1.255-1.168c.315-.294.327-.61.022-.937l-.576-.618-.685.64c-.268-.459-.532-.9-.891-1.284L-5.055-.984c-.398-.428-1.032.146-.624.585l1.454 1.562-.961.897-.42-.348c-.235-.166-.551.115-.351.329l1.104 1.186c.15.161.309.175.461.03l1.136-1.055 1.509 1.624c.48.515.772.948.885 1.294l-2.764 2.574-.605-.511c-.412-.065-.442.542-.132.684L-3.3 9.01c.205.114.379.094.541-.055l1.925-1.793L.181 8.253c.384.413.977-.14.591-.552Zm-2.065-2.423-.51-.55-2.027 1.89-2.86-3.076c-.384-.41-1.02.146-.619.577l3.372 3.621c.312.336.628.349.945.053l1.684-1.568c.292-.273.28-.662.015-.947" style="fill:#144e8c;fill-opacity:1;fill-rule:nonzero;stroke:none" transform="matrix(1.06107 0 0 -1.06107 21.575 25.267)"/><path d="m0 0-.624-.269-2.549 5.894-1.122-.484 1.73-3.998c.331-.768.293-1.242-.116-1.42l-.646-.28-1.389 3.213c-.315-.367-.65-.628-.994-.779L-8.383.724c-.42-.183-.713-.067-.887.332l-1.957 4.527-.502-.139c-.283.03-.524.385-.192.53l3.512 1.521c.486.21.846-.532.328-.755l-1.821-.788 1.809-4.183 2.047.887c.494.214.826.485.984.797l-1.999 4.624-.688-.273c-.363.098-.249.66.206.704l1.241.537c.209.016.351-.077.442-.282l1.225-2.835 1.099.477-1.151 2.66-.821-.29c-.391.075-.22.685.163.685l1.37.593c.233.024.395-.059.484-.264L.127 1.423C.458.66.421.182 0 0" style="fill:#144e8c;fill-opacity:1;fill-rule:nonzero;stroke:none" transform="matrix(1.06107 0 0 -1.06107 40.12 15.56)"/><path d="m0 0-.034-2.101c-.006-.435-.233-.654-.69-.647l-.833.012.083 5.389-.782.083c-.313.273.09.69.419.558l1.584-.028c.197-.095.3-.238.296-.439L.012.832 1.489.81c.577-.009.54-.842-.011-.834Zm-7.089-.146C-7.117-1.85-4.548-1.89-4.521-.188c.028 1.714-2.542 1.777-2.568.042m6.291-7.332-.834.014.053 3.416-5.913.09c-.585.013-.585.868.015.858l6.746-.107c.388-.005.675-.269.668-.668l-.038-2.462C-.113-7.1-.342-7.486-.798-7.478m-3.16 8.794c.686-.406.997-.848.982-1.657-.041-2.652-5.634-2.481-5.595.088.011.715.395 1.25 1.142 1.625l-1.387.024c-.538.008-.573.83.016.82l2.461-.038.012.679-.515.116c-.314.075-.273.532.009.526l1.724-.026c.223-.003.339-.113.336-.334l-.016-.987 2.323-.037c.585-.008.526-.83-.013-.82z" style="fill:#144e8c;fill-opacity:1;fill-rule:nonzero;stroke:none" transform="matrix(1.06107 0 0 -1.06107 56.56 5.782)"/><path d="m0 0-.771.343 2.135 4.781-5.667 2.532c-.589.262-.214 1.109.377.848l6.439-2.879a.649.649 0 0 0 .336-.885L1.122.874C.783.111.407-.182 0 0m-8.011 1.02c-.536.242-.196 1.027.349.783l1.735-.775 1.137 2.55-.629.399c-.249.162-.081.652.229.514l1.703-.761c.203-.091.267-.235.175-.441L-4.574.462l1.231-.55 1.16 2.592-.567.316c-.217.228-.059.645.23.516l1.651-.739c.203-.091.253-.241.161-.443L-1.996-.73.502-1.846c.589-.261.205-1.03-.352-.781Z" style="fill:#144e8c;fill-opacity:1;fill-rule:nonzero;stroke:none" transform="matrix(1.06107 0 0 -1.06107 72.492 13.912)"/><path d="m0 0-.521.573L.71 1.695l-.869.955c-.362.4.194.974.589.538l.893-.98.983.893-.918 1.006c-.339.374.207.903.563.515l.918-1.007.738.672-.493.645c-.043.343.426.264.608.031l1.003-1.102c.108-.206.091-.362-.057-.497L1.284.28C.721-.233.292-.322 0 0m-.477 5.266-1.572 1.728-1.31-1.194 1.572-1.728ZM-1.798 2.95-4.43 5.841c-.245.269-.243.652.035.906l2.723 2.482-.335.47c-.151.291.189.633.419.38l1.121-1.232c.111-.12.127-.295-.004-.415l-.987-.901L.114 5.804l.831.759-.408.499c-.154.257.194.609.415.364l1.209-1.328c.143-.154.147-.296.006-.423L-.885 2.892c-.279-.253-.66-.217-.913.058m-2.847-1.404c-1.38-1.257.756-3.533 2.102-2.307 1.5 1.367-.583 3.69-2.102 2.307m-1.046 1.079c1.103 1.038 2.569.421 3.576-.425.494.45 1.055-.149.554-.607.7-1.03.964-2.504-.083-3.411C-3.905-3.782-7.785.67-5.691 2.625" style="fill:#144e8c;fill-opacity:1;fill-rule:nonzero;stroke:none" transform="matrix(1.06107 0 0 -1.06107 87 25.437)"/><path d="M0 0c-1.59-.534-.605-3.618 1.03-3.068C2.608-2.538 1.543.518 0 0m-.464 1.305C.924 1.771 1.755.701 2.205-.459c.625.21.874-.608.273-.812.448-1.224.252-2.699-1.029-3.119-2.591-.833-4.58 4.797-1.913 5.695m-3.27-9.453-.265.792 1.434.478-.572 1.703c-.158.478.567.709.723.24l.573-1.699.954.321c-.185.149-.326.386-.434.707l-.821 2.435-.932-.312c-.367-.125-.617.027-.757.45l-.235.7 1.478.498-.926 2.756c-.188.558.586.72.744.251l2.193-6.527c.085-.255.216-.496.401-.717l3.424 1.149-.183.768c.153.386.682.142.664-.21l.491-1.466c-.006-.237-.113-.4-.3-.463l-6.036-2.028c-.934-.314-1.472-.261-1.618.174M-7.607-3.14c-.122.369.028.728.407.855l1.813.608-.13.565c-.027.412.487.621.625.209l.549-1.635c.07-.21.009-.357-.205-.428l-2.012-.676 1.956-5.815c.158-.478-.608-.811-.791-.265z" style="fill:#144e8c;fill-opacity:1;fill-rule:nonzero;stroke:none" transform="matrix(1.06107 0 0 -1.06107 96.773 33.891)"/><path d="m0 0-4.255 19.125h2.291L.028 9.449C.526 7.063.975 4.68 1.27 2.837h.053c.274 1.9.794 4.171 1.371 6.64l2.235 9.648h2.267L9.238 9.42c.475-2.27.923-4.542 1.171-6.557h.051c.35 2.1.822 4.229 1.343 6.614l2.216 9.648h2.217L11.481 0H9.215l-2.12 9.957c-.517 2.443-.871 4.313-1.09 6.244h-.052c-.276-1.902-.675-3.775-1.298-6.244L2.263 0Z" style="fill:#144e8c;fill-opacity:1;fill-rule:nonzero;stroke:none" transform="matrix(1.06107 0 0 -1.06107 119.834 90.731)"/><path d="m0 0-4.255 19.125h2.291L.028 9.449C.526 7.063.975 4.68 1.27 2.837h.053c.274 1.9.794 4.171 1.371 6.64l2.235 9.648h2.267L9.238 9.42c.475-2.27.923-4.542 1.171-6.557h.051c.35 2.1.822 4.229 1.343 6.614l2.216 9.648h2.217L11.481 0H9.215l-2.12 9.957c-.517 2.443-.871 4.313-1.09 6.244h-.052c-.276-1.902-.675-3.775-1.298-6.244L2.263 0Z" style="fill:none;stroke:#144e8c;stroke-width:1px;stroke-linecap:butt;stroke-linejoin:miter;stroke-miterlimit:4;stroke-dasharray:none;stroke-opacity:1" transform="matrix(1.06107 0 0 -1.06107 119.834 90.731)"/><path d="M0 0c0-4.116 1.943-7.774 5.375-7.774 3.444 0 5.38 3.602 5.38 7.946 0 3.83-1.739 7.801-5.353 7.801C1.787 7.973 0 4.167 0 0m13.046.283c0-6.556-3.506-10.074-7.79-10.074-4.463 0-7.549 3.947-7.549 9.734 0 6.073 3.288 10.045 7.77 10.045 4.608 0 7.569-4.004 7.569-9.705" style="fill:#144e8c;fill-opacity:1;fill-rule:nonzero;stroke:none" transform="matrix(1.06107 0 0 -1.06107 140.667 80.676)"/><path d="M0 0c0-4.116 1.943-7.774 5.375-7.774 3.444 0 5.38 3.602 5.38 7.946 0 3.83-1.739 7.801-5.353 7.801C1.787 7.973 0 4.167 0 0Zm13.046.283c0-6.556-3.506-10.074-7.79-10.074-4.463 0-7.549 3.947-7.549 9.734 0 6.073 3.288 10.045 7.77 10.045 4.608 0 7.569-4.004 7.569-9.705z" style="fill:none;stroke:#144e8c;stroke-width:1px;stroke-linecap:butt;stroke-linejoin:miter;stroke-miterlimit:4;stroke-dasharray:none;stroke-opacity:1" transform="matrix(1.06107 0 0 -1.06107 140.667 80.676)"/><path d="M0 0v19.125h2.388l5.353-9.676c1.218-2.245 2.219-4.258 2.988-6.217l.073.03c-.194 2.554-.249 4.88-.249 7.859v8.004h2.042V0h-2.191L5.075 9.703c-1.167 2.126-2.291 4.313-3.111 6.385l-.074-.029c.122-2.415.151-4.709.151-7.889V0Z" style="fill:#144e8c;fill-opacity:1;fill-rule:nonzero;stroke:none" transform="matrix(1.06107 0 0 -1.06107 157.509 90.731)"/><path d="M0 0v19.125h2.388l5.353-9.676c1.218-2.245 2.219-4.258 2.988-6.217l.073.03c-.194 2.554-.249 4.88-.249 7.859v8.004h2.042V0h-2.191L5.075 9.703c-1.167 2.126-2.291 4.313-3.111 6.385l-.074-.029c.122-2.415.151-4.709.151-7.889V0Z" style="fill:none;stroke:#144e8c;stroke-width:1px;stroke-linecap:butt;stroke-linejoin:miter;stroke-miterlimit:4;stroke-dasharray:none;stroke-opacity:1" transform="matrix(1.06107 0 0 -1.06107 157.509 90.731)"/><path d="M0 0h2.166v-9.225h.072c.449.74.893 1.417 1.32 2.043L8.691 0h2.685L5.3-8.117l6.549-11.008H9.285L3.781-9.734l-1.615-2.1v-7.291H0Z" style="fill:#144e8c;fill-opacity:1;fill-rule:nonzero;stroke:none" transform="matrix(1.06107 0 0 -1.06107 174.902 70.438)"/><path d="M0 0h2.166v-9.225h.072c.449.74.893 1.417 1.32 2.043L8.691 0h2.685L5.3-8.117l6.549-11.008H9.285L3.781-9.734l-1.615-2.1v-7.291H0Z" style="fill:none;stroke:#144e8c;stroke-width:1px;stroke-linecap:butt;stroke-linejoin:miter;stroke-miterlimit:4;stroke-dasharray:none;stroke-opacity:1" transform="matrix(1.06107 0 0 -1.06107 174.902 70.438)"/><path d="m0 0-4.258 19.125h2.293L.024 9.449C.523 7.063.973 4.68 1.269 2.837h.048c.278 1.9.803 4.171 1.372 6.64l2.239 9.648h2.266L9.24 9.42c.474-2.27.919-4.542 1.167-6.557h.049c.353 2.1.824 4.229 1.349 6.614l2.212 9.648h2.214L11.479 0H9.211l-2.12 9.957c-.518 2.443-.863 4.313-1.089 6.244h-.054c-.271-1.902-.67-3.775-1.292-6.244L2.262 0Z" style="fill:#144e8c;fill-opacity:1;fill-rule:nonzero;stroke:none" transform="matrix(1.06107 0 0 -1.06107 192.53 90.731)"/><path d="m0 0-4.258 19.125h2.293L.024 9.449C.523 7.063.973 4.68 1.269 2.837h.048c.278 1.9.803 4.171 1.372 6.64l2.239 9.648h2.266L9.24 9.42c.474-2.27.919-4.542 1.167-6.557h.049c.353 2.1.824 4.229 1.349 6.614l2.212 9.648h2.214L11.479 0H9.211l-2.12 9.957c-.518 2.443-.863 4.313-1.089 6.244h-.054c-.271-1.902-.67-3.775-1.292-6.244L2.262 0Z" style="fill:none;stroke:#144e8c;stroke-width:1px;stroke-linecap:butt;stroke-linejoin:miter;stroke-miterlimit:4;stroke-dasharray:none;stroke-opacity:1" transform="matrix(1.06107 0 0 -1.06107 192.53 90.731)"/><path d="m0 0-1.67 5.502c-.369 1.252-.621 2.385-.866 3.493h-.054c-.247-1.108-.495-2.3-.842-3.462L-5.075 0Zm-5.527-1.931-1.736-6.014h-2.248l5.728 19.125h2.587L4.532-7.945H2.217L.425-1.931z" style="fill:#144e8c;fill-opacity:1;fill-rule:nonzero;stroke:none" transform="matrix(1.06107 0 0 -1.06107 219.223 82.3)"/><path d="m0 0-1.67 5.502c-.369 1.252-.621 2.385-.866 3.493h-.054c-.247-1.108-.495-2.3-.842-3.462L-5.075 0Zm-5.527-1.931-1.736-6.014h-2.248l5.728 19.125h2.587L4.532-7.945H2.217L.425-1.931z" style="fill:none;stroke:#144e8c;stroke-width:1px;stroke-linecap:butt;stroke-linejoin:miter;stroke-miterlimit:4;stroke-dasharray:none;stroke-opacity:1" transform="matrix(1.06107 0 0 -1.06107 219.223 82.3)"/><path d="M0 0v19.125h2.39l5.354-9.676c1.223-2.245 2.217-4.258 2.986-6.217l.076.03c-.195 2.554-.251 4.88-.251 7.859v8.004h2.047V0H10.41L5.078 9.703c-1.168 2.126-2.291 4.313-3.113 6.385l-.07-.029c.121-2.415.144-4.709.144-7.889V0Z" style="fill:#144e8c;fill-opacity:1;fill-rule:nonzero;stroke:none" transform="matrix(1.06107 0 0 -1.06107 226.659 90.731)"/><path d="M0 0v19.125h2.39l5.354-9.676c1.223-2.245 2.217-4.258 2.986-6.217l.076.03c-.195 2.554-.251 4.88-.251 7.859v8.004h2.047V0H10.41L5.078 9.703c-1.168 2.126-2.291 4.313-3.113 6.385l-.07-.029c.121-2.415.144-4.709.144-7.889V0Z" style="fill:none;stroke:#144e8c;stroke-width:1px;stroke-linecap:butt;stroke-linejoin:miter;stroke-miterlimit:4;stroke-dasharray:none;stroke-opacity:1" transform="matrix(1.06107 0 0 -1.06107 226.659 90.731)"/><path d="M0 0c-.973-.425-2.912-1.051-5.184-1.051-2.535 0-4.629.738-6.269 2.529-1.442 1.586-2.34 4.14-2.34 7.122 0 5.701 3.461 9.873 9.088 9.873 1.941 0 3.484-.483 4.207-.879l-.547-2.017c-.896.485-2.019.823-3.713.823-4.082 0-6.746-2.892-6.746-7.689 0-4.85 2.543-7.719 6.475-7.719 1.42 0 2.383.229 2.884.51v5.705h-3.384v1.988H0Z" style="fill:#144e8c;fill-opacity:1;fill-rule:nonzero;stroke:none" transform="matrix(1.06107 0 0 -1.06107 257.633 89.83)"/><path d="M0 0c-.973-.425-2.912-1.051-5.184-1.051-2.535 0-4.629.738-6.269 2.529-1.442 1.586-2.34 4.14-2.34 7.122 0 5.701 3.461 9.873 9.088 9.873 1.941 0 3.484-.483 4.207-.879l-.547-2.017c-.896.485-2.019.823-3.713.823-4.082 0-6.746-2.892-6.746-7.689 0-4.85 2.543-7.719 6.475-7.719 1.42 0 2.383.229 2.884.51v5.705h-3.384v1.988H0Z" style="fill:none;stroke:#144e8c;stroke-width:1px;stroke-linecap:butt;stroke-linejoin:miter;stroke-miterlimit:4;stroke-dasharray:none;stroke-opacity:1" transform="matrix(1.06107 0 0 -1.06107 257.633 89.83)"/><path d="M0 0v-11.354c0-4.253 1.666-6.069 3.912-6.069 2.467 0 4.08 1.87 4.08 6.069V0h2.194v-11.18c0-5.875-2.713-8.259-6.346-8.259-3.442 0-6.031 2.215-6.031 8.172V0Z" style="fill:#144e8c;fill-opacity:1;fill-rule:nonzero;stroke:none" transform="matrix(1.06107 0 0 -1.06107 269.03 70.438)"/><path d="M0 0v-11.354c0-4.253 1.666-6.069 3.912-6.069 2.467 0 4.08 1.87 4.08 6.069V0h2.194v-11.18c0-5.875-2.713-8.259-6.346-8.259-3.442 0-6.031 2.215-6.031 8.172V0Z" style="fill:none;stroke:#144e8c;stroke-width:1px;stroke-linecap:butt;stroke-linejoin:miter;stroke-miterlimit:4;stroke-dasharray:none;stroke-opacity:1" transform="matrix(1.06107 0 0 -1.06107 269.03 70.438)"/><path d="M0 0v19.125h2.393l5.349-9.676c1.221-2.245 2.217-4.258 2.992-6.217l.075.03c-.2 2.554-.252 4.88-.252 7.859v8.004H12.6V0h-2.194L5.078 9.703c-1.172 2.126-2.287 4.313-3.117 6.385l-.07-.029c.127-2.415.152-4.709.152-7.889V0Z" style="fill:#144e8c;fill-opacity:1;fill-rule:nonzero;stroke:none" transform="matrix(1.06107 0 0 -1.06107 283.834 90.731)"/><path d="M0 0v19.125h2.393l5.349-9.676c1.221-2.245 2.217-4.258 2.992-6.217l.075.03c-.2 2.554-.252 4.88-.252 7.859v8.004H12.6V0h-2.194L5.078 9.703c-1.172 2.126-2.287 4.313-3.117 6.385l-.07-.029c.127-2.415.152-4.709.152-7.889V0Z" style="fill:none;stroke:#144e8c;stroke-width:1px;stroke-linecap:butt;stroke-linejoin:miter;stroke-miterlimit:4;stroke-dasharray:none;stroke-opacity:1" transform="matrix(1.06107 0 0 -1.06107 283.834 90.731)"/><path d="M361.813 478.943h-2.191v19.125h2.191z" style="fill:#144e8c;fill-opacity:1;fill-rule:nonzero;stroke:#144e8c;stroke-width:1px;stroke-linecap:butt;stroke-linejoin:miter;stroke-miterlimit:4;stroke-dasharray:none;stroke-opacity:1" transform="matrix(1.06107 0 0 -1.06107 -80.383 598.924)"/><path d="m0 0-5.508 19.125h2.371l2.614-9.422C.17 7.122.797 4.795 1.268 2.549h.048c.477 2.217 1.145 4.629 1.922 7.127l2.834 9.449h2.315L2.391 0Z" style="fill:#144e8c;fill-opacity:1;fill-rule:nonzero;stroke:none" transform="matrix(1.06107 0 0 -1.06107 311.46 90.731)"/><path d="m0 0-5.508 19.125h2.371l2.614-9.422C.17 7.122.797 4.795 1.268 2.549h.048c.477 2.217 1.145 4.629 1.922 7.127l2.834 9.449h2.315L2.391 0Z" style="fill:none;stroke:#144e8c;stroke-width:1px;stroke-linecap:butt;stroke-linejoin:miter;stroke-miterlimit:4;stroke-dasharray:none;stroke-opacity:1" transform="matrix(1.06107 0 0 -1.06107 311.46 90.731)"/><path d="M0 0h-6.504v-6.896H.768v-2.071h-9.461v19.125H.393V8.084h-6.897V2.041H0Z" style="fill:#144e8c;fill-opacity:1;fill-rule:nonzero;stroke:none" transform="matrix(1.06107 0 0 -1.06107 331.496 81.217)"/><path d="M0 0h-6.504v-6.896H.768v-2.071h-9.461v19.125H.393V8.084h-6.897V2.041H0Z" style="fill:none;stroke:#144e8c;stroke-width:1px;stroke-linecap:butt;stroke-linejoin:miter;stroke-miterlimit:4;stroke-dasharray:none;stroke-opacity:1" transform="matrix(1.06107 0 0 -1.06107 331.496 81.217)"/><path d="M0 0h2.221c2.316 0 3.785 1.445 3.785 3.633 0 2.467-1.57 3.546-3.86 3.546-1.05 0-1.769-.085-2.146-.199Zm-2.162 8.709c1.096.228 2.693.4 4.156.4 2.315 0 3.84-.511 4.858-1.562.816-.851 1.318-2.156 1.318-3.658 0-2.5-1.397-4.174-3.137-4.854v-.085c1.266-.51 2.041-1.871 2.44-3.857.547-2.667.943-4.513 1.297-5.249H6.527c-.273.567-.648 2.186-1.095 4.566C4.93-2.952 4.01-1.956 2.047-1.873H0v-8.283h-2.162z" style="fill:#144e8c;fill-opacity:1;fill-rule:nonzero;stroke:none" transform="matrix(1.06107 0 0 -1.06107 337.597 79.954)"/><path d="M0 0h2.221c2.316 0 3.785 1.445 3.785 3.633 0 2.467-1.57 3.546-3.86 3.546-1.05 0-1.769-.085-2.146-.199Zm-2.162 8.709c1.096.228 2.693.4 4.156.4 2.315 0 3.84-.511 4.858-1.562.816-.851 1.318-2.156 1.318-3.658 0-2.5-1.397-4.174-3.137-4.854v-.085c1.266-.51 2.041-1.871 2.44-3.857.547-2.667.943-4.513 1.297-5.249H6.527c-.273.567-.648 2.186-1.095 4.566C4.93-2.952 4.01-1.956 2.047-1.873H0v-8.283h-2.162z" style="fill:none;stroke:#144e8c;stroke-width:1px;stroke-linecap:butt;stroke-linejoin:miter;stroke-miterlimit:4;stroke-dasharray:none;stroke-opacity:1" transform="matrix(1.06107 0 0 -1.06107 337.597 79.954)"/><path d="M0 0a6.715 6.715 0 0 1 3.859-1.253c2.217 0 3.514 1.337 3.514 3.267 0 1.757-.9 2.811-3.166 3.77-2.738 1.137-4.428 2.784-4.428 5.45 0 2.979 2.164 5.193 5.426 5.193 1.695 0 2.963-.454 3.682-.937l-.596-2.013c-.52.368-1.641.907-3.16.907-2.293 0-3.16-1.56-3.16-2.866 0-1.786 1.019-2.666 3.334-3.69 2.836-1.246 4.261-2.807 4.261-5.615 0-2.951-1.892-5.535-5.853-5.535-1.623 0-3.385.57-4.281 1.248z" style="fill:#144e8c;fill-opacity:1;fill-rule:nonzero;stroke:none" transform="matrix(1.06107 0 0 -1.06107 349.231 87.54)"/><path d="M0 0a6.715 6.715 0 0 1 3.859-1.253c2.217 0 3.514 1.337 3.514 3.267 0 1.757-.9 2.811-3.166 3.77-2.738 1.137-4.428 2.784-4.428 5.45 0 2.979 2.164 5.193 5.426 5.193 1.695 0 2.963-.454 3.682-.937l-.596-2.013c-.52.368-1.641.907-3.16.907-2.293 0-3.16-1.56-3.16-2.866 0-1.786 1.019-2.666 3.334-3.69 2.836-1.246 4.261-2.807 4.261-5.615 0-2.951-1.892-5.535-5.853-5.535-1.623 0-3.385.57-4.281 1.248z" style="fill:none;stroke:#144e8c;stroke-width:1px;stroke-linecap:butt;stroke-linejoin:miter;stroke-miterlimit:4;stroke-dasharray:none;stroke-opacity:1" transform="matrix(1.06107 0 0 -1.06107 349.231 87.54)"/><path d="M419.609 478.943h-2.188v19.125h2.188z" style="fill:#144e8c;fill-opacity:1;fill-rule:nonzero;stroke:#144e8c;stroke-width:1px;stroke-linecap:butt;stroke-linejoin:miter;stroke-miterlimit:4;stroke-dasharray:none;stroke-opacity:1" transform="matrix(1.06107 0 0 -1.06107 -80.383 598.924)"/><path d="M0 0h-5.104v2.102H7.313V0H2.189v-17.023H0Z" style="fill:#144e8c;fill-opacity:1;fill-rule:nonzero;stroke:none" transform="matrix(1.06107 0 0 -1.06107 372.258 72.668)"/><path d="M0 0h-5.104v2.102H7.313V0H2.189v-17.023H0Z" style="fill:none;stroke:#144e8c;stroke-width:1px;stroke-linecap:butt;stroke-linejoin:miter;stroke-miterlimit:4;stroke-dasharray:none;stroke-opacity:1" transform="matrix(1.06107 0 0 -1.06107 372.258 72.668)"/><path d="M0 0v8.113l-5.33 11.012h2.492l2.369-5.278C.15 12.4.678 11.235 1.197 9.9h.055c.445 1.252 1.041 2.5 1.689 3.947l2.416 5.278h2.44L2.189 8.142V0Z" style="fill:#144e8c;fill-opacity:1;fill-rule:nonzero;stroke:none" transform="matrix(1.06107 0 0 -1.06107 386.71 90.731)"/><path d="M0 0v8.113l-5.33 11.012h2.492l2.369-5.278C.15 12.4.678 11.235 1.197 9.9h.055c.445 1.252 1.041 2.5 1.689 3.947l2.416 5.278h2.44L2.189 8.142V0Z" style="fill:none;stroke:#144e8c;stroke-width:1px;stroke-linecap:butt;stroke-linejoin:miter;stroke-miterlimit:4;stroke-dasharray:none;stroke-opacity:1" transform="matrix(1.06107 0 0 -1.06107 386.71 90.731)"/><path d="M0 0v-8.004h8.111V0h2.192v-19.125H8.111v8.967H0v-8.967h-2.203V0Z" style="fill:#144e8c;fill-opacity:1;fill-rule:nonzero;stroke:none" transform="matrix(1.06107 0 0 -1.06107 404.96 70.438)"/><path d="M0 0v-8.004h8.111V0h2.192v-19.125H8.111v8.967H0v-8.967h-2.203V0Z" style="fill:none;stroke:#144e8c;stroke-width:1px;stroke-linecap:butt;stroke-linejoin:miter;stroke-miterlimit:4;stroke-dasharray:none;stroke-opacity:1" transform="matrix(1.06107 0 0 -1.06107 404.96 70.438)"/><path d="M0 0c0-4.116 1.938-7.774 5.375-7.774 3.436 0 5.377 3.602 5.377 7.946 0 3.83-1.744 7.801-5.352 7.801C1.787 7.973 0 4.167 0 0m13.043.283c0-6.556-3.512-10.074-7.797-10.074-4.451 0-7.539 3.947-7.539 9.734 0 6.073 3.287 10.045 7.766 10.045 4.607 0 7.57-4.004 7.57-9.705" style="fill:#144e8c;fill-opacity:1;fill-rule:nonzero;stroke:none" transform="matrix(1.06107 0 0 -1.06107 421.27 80.676)"/><path d="M0 0c0-4.116 1.938-7.774 5.375-7.774 3.436 0 5.377 3.602 5.377 7.946 0 3.83-1.744 7.801-5.352 7.801C1.787 7.973 0 4.167 0 0Zm13.043.283c0-6.556-3.512-10.074-7.797-10.074-4.451 0-7.539 3.947-7.539 9.734 0 6.073 3.287 10.045 7.766 10.045 4.607 0 7.57-4.004 7.57-9.705z" style="fill:none;stroke:#144e8c;stroke-width:1px;stroke-linecap:butt;stroke-linejoin:miter;stroke-miterlimit:4;stroke-dasharray:none;stroke-opacity:1" transform="matrix(1.06107 0 0 -1.06107 421.27 80.676)"/><path d="M0 0a6.703 6.703 0 0 1 3.857-1.253c2.219 0 3.516 1.337 3.516 3.267 0 1.757-.904 2.811-3.168 3.77-2.736 1.137-4.426 2.784-4.426 5.45 0 2.979 2.164 5.193 5.418 5.193 1.701 0 2.969-.454 3.69-.937l-.592-2.013c-.529.368-1.65.907-3.166.907-2.291 0-3.162-1.56-3.162-2.866 0-1.786 1.019-2.666 3.334-3.69 2.838-1.246 4.258-2.807 4.258-5.615 0-2.951-1.889-5.535-5.85-5.535-1.617 0-3.383.57-4.283 1.248z" style="fill:#144e8c;fill-opacity:1;fill-rule:nonzero;stroke:none" transform="matrix(1.06107 0 0 -1.06107 437.814 87.54)"/><path d="M0 0a6.703 6.703 0 0 1 3.857-1.253c2.219 0 3.516 1.337 3.516 3.267 0 1.757-.904 2.811-3.168 3.77-2.736 1.137-4.426 2.784-4.426 5.45 0 2.979 2.164 5.193 5.418 5.193 1.701 0 2.969-.454 3.69-.937l-.592-2.013c-.529.368-1.65.907-3.166.907-2.291 0-3.162-1.56-3.162-2.866 0-1.786 1.019-2.666 3.334-3.69 2.838-1.246 4.258-2.807 4.258-5.615 0-2.951-1.889-5.535-5.85-5.535-1.617 0-3.383.57-4.283 1.248z" style="fill:none;stroke:#144e8c;stroke-width:1px;stroke-linecap:butt;stroke-linejoin:miter;stroke-miterlimit:4;stroke-dasharray:none;stroke-opacity:1" transform="matrix(1.06107 0 0 -1.06107 437.814 87.54)"/><path d="M0 0c.473-.144 1.072-.199 1.787-.199 2.619 0 4.215 1.474 4.215 4.056 0 2.555-1.596 3.775-3.959 3.775-.947 0-1.668-.087-2.043-.198Zm-2.164 9.219c1.043.198 2.414.371 4.156.371 2.141 0 3.707-.568 4.707-1.59.895-.908 1.473-2.299 1.473-3.999 0-1.733-.451-3.093-1.301-4.087-1.172-1.39-3.01-2.102-5.129-2.102-.646 0-1.246.03-1.742.172v-7.66h-2.164z" style="fill:#144e8c;fill-opacity:1;fill-rule:nonzero;stroke:none" transform="matrix(1.06107 0 0 -1.06107 453.434 80.464)"/><path d="M0 0c.473-.144 1.072-.199 1.787-.199 2.619 0 4.215 1.474 4.215 4.056 0 2.555-1.596 3.775-3.959 3.775-.947 0-1.668-.087-2.043-.198Zm-2.164 9.219c1.043.198 2.414.371 4.156.371 2.141 0 3.707-.568 4.707-1.59.895-.908 1.473-2.299 1.473-3.999 0-1.733-.451-3.093-1.301-4.087-1.172-1.39-3.01-2.102-5.129-2.102-.646 0-1.246.03-1.742.172v-7.66h-2.164z" style="fill:none;stroke:#144e8c;stroke-width:1px;stroke-linecap:butt;stroke-linejoin:miter;stroke-miterlimit:4;stroke-dasharray:none;stroke-opacity:1" transform="matrix(1.06107 0 0 -1.06107 453.434 80.464)"/><path d="M516.344 478.943h-2.191v19.125h2.191z" style="fill:#144e8c;fill-opacity:1;fill-rule:nonzero;stroke:#144e8c;stroke-width:1px;stroke-linecap:butt;stroke-linejoin:miter;stroke-miterlimit:4;stroke-dasharray:none;stroke-opacity:1" transform="matrix(1.06107 0 0 -1.06107 -80.383 598.924)"/><path d="M0 0h-5.104v2.102h12.43V0H2.188v-17.023H0Z" style="fill:#144e8c;fill-opacity:1;fill-rule:nonzero;stroke:none" transform="matrix(1.06107 0 0 -1.06107 474.898 72.668)"/><path d="M0 0h-5.104v2.102h12.43V0H2.188v-17.023H0Z" style="fill:none;stroke:#144e8c;stroke-width:1px;stroke-linecap:butt;stroke-linejoin:miter;stroke-miterlimit:4;stroke-dasharray:none;stroke-opacity:1" transform="matrix(1.06107 0 0 -1.06107 474.898 72.668)"/><path d="m0 0-1.672 5.502c-.375 1.252-.623 2.385-.869 3.493h-.053c-.246-1.108-.492-2.3-.842-3.462L-5.086 0Zm-5.533-1.931-1.744-6.014h-2.235l5.723 19.125h2.59L4.525-7.945h-2.32L.418-1.931z" style="fill:#144e8c;fill-opacity:1;fill-rule:nonzero;stroke:none" transform="matrix(1.06107 0 0 -1.06107 491.421 82.3)"/><path d="m0 0-1.672 5.502c-.375 1.252-.623 2.385-.869 3.493h-.053c-.246-1.108-.492-2.3-.842-3.462L-5.086 0Zm-5.533-1.931-1.744-6.014h-2.235l5.723 19.125h2.59L4.525-7.945h-2.32L.418-1.931z" style="fill:none;stroke:#144e8c;stroke-width:1px;stroke-linecap:butt;stroke-linejoin:miter;stroke-miterlimit:4;stroke-dasharray:none;stroke-opacity:1" transform="matrix(1.06107 0 0 -1.06107 491.421 82.3)"/><path d="M0 0h2.18v-17.055h7.174v-2.07H0Z" style="fill:#144e8c;fill-opacity:1;fill-rule:nonzero;stroke:none" transform="matrix(1.06107 0 0 -1.06107 498.83 70.438)"/><path d="M0 0h2.18v-17.055h7.174v-2.07H0Z" style="fill:none;stroke:#144e8c;stroke-width:1px;stroke-linecap:butt;stroke-linejoin:miter;stroke-miterlimit:4;stroke-dasharray:none;stroke-opacity:1" transform="matrix(1.06107 0 0 -1.06107 498.83 70.438)"/></svg>