<?xml version="1.0" encoding="utf-8"?>
<!-- Generator: Adobe Illustrator 28.1.0, SVG Export Plug-In . SVG Version: 6.00 Build 0)  -->
<svg version="1.1" id="Admissions" xmlns="http://www.w3.org/2000/svg" xmlns:xlink="http://www.w3.org/1999/xlink" x="0px" y="0px"
	 viewBox="0 0 69.6 66.5" enable-background="new 0 0 69.6 66.5" xml:space="preserve">
<g>
	<path fill="#002E5E" d="M10.6,55.4c-2.1,0-2.5-1.2-2.4-2.7h1.7c0,0.8,0,1.4,1,1.4c0.6,0,0.9-0.4,0.9-0.9c0-1.5-3.4-1.6-3.4-4
		C8.3,48,8.9,47,11,47c1.7,0,2.5,0.7,2.4,2.5h-1.7c0-0.6-0.1-1.2-0.8-1.2c-0.6,0-0.9,0.3-0.9,0.9c0,1.5,3.4,1.4,3.4,4
		C13.4,55.2,11.9,55.4,10.6,55.4z"/>
	<path fill="#002E5E" d="M14.7,51.2c0-2.2,0-4.2,2.8-4.2c1.7,0,2.4,1,2.4,2.7h-1.7c0-1.1-0.2-1.5-0.7-1.5c-1,0-1.1,0.9-1.1,3
		c0,2.1,0.1,3,1.1,3c0.8,0,0.8-1,0.8-1.7h1.7c0,2.2-0.9,2.9-2.5,2.9C14.7,55.4,14.7,53.3,14.7,51.2z"/>
	<path fill="#002E5E" d="M24.8,50.4v-3.3h1.7v8.2h-1.7v-3.6h-2v3.6h-1.7v-8.2h1.7v3.3H24.8z"/>
	<path fill="#002E5E" d="M28,51.2c0-2.2,0-4.2,2.8-4.2s2.8,2.1,2.8,4.2c0,2.1,0,4.2-2.8,4.2S28,53.3,28,51.2z M31.9,51.2
		c0-2.1-0.1-3-1.1-3c-1,0-1.1,0.9-1.1,3c0,2.1,0.1,3,1.1,3C31.8,54.2,31.9,53.3,31.9,51.2z"/>
	<path fill="#002E5E" d="M34.9,51.2c0-2.2,0-4.2,2.8-4.2c2.8,0,2.8,2.1,2.8,4.2c0,2.1,0,4.2-2.8,4.2C34.9,55.4,34.9,53.3,34.9,51.2z
		 M38.8,51.2c0-2.1-0.1-3-1.1-3c-1,0-1.1,0.9-1.1,3c0,2.1,0.1,3,1.1,3C38.7,54.2,38.8,53.3,38.8,51.2z"/>
	<path fill="#002E5E" d="M42,55.3v-8.2h1.7v6.8h2.6v1.4H42z"/>
	<path fill="#002E5E" d="M49.4,51.2c0-2.2,0-4.2,2.8-4.2C55,47,55,49,55,51.2c0,2.1,0,4.2-2.8,4.2C49.4,55.4,49.4,53.3,49.4,51.2z
		 M53.3,51.2c0-2.1-0.1-3-1.1-3c-1,0-1.1,0.9-1.1,3c0,2.1,0.1,3,1.1,3C53.2,54.2,53.3,53.3,53.3,51.2z"/>
	<path fill="#002E5E" d="M56.4,55.3v-8.2h4.2v1.3h-2.5v2.1h2.4v1.3h-2.4v3.6H56.4z"/>
</g>
<path fill="#002E5E" d="M0.9,65.4v-8.2h1.7v8.2H0.9z"/>
<path fill="#002E5E" d="M4.1,65.4v-8.2h2.3l2.2,5.6h0v-5.6h1.6v8.2H8l-2.2-6h0v6H4.1z"/>
<path fill="#002E5E" d="M11.7,65.4v-8.2h4.2v1.3h-2.5v2.1h2.4v1.3h-2.4v3.6H11.7z"/>
<path fill="#002E5E" d="M16.9,61.4c0-2.2,0-4.2,2.8-4.2c2.8,0,2.8,2.1,2.8,4.2c0,2.1,0,4.2-2.8,4.2C16.9,65.6,16.9,63.5,16.9,61.4z
	 M20.8,61.4c0-2.1-0.1-3-1.1-3c-1,0-1.1,0.9-1.1,3c0,2.1,0.1,3,1.1,3C20.7,64.4,20.8,63.5,20.8,61.4z"/>
<path fill="#002E5E" d="M25.7,65.4H24v-8.2h3.2c1.2,0,1.9,0.7,1.9,2.1c0,1-0.4,1.8-1.5,2v0c0.4,0,1.5,0.1,1.5,1.6
	c0,0.5,0,2.1,0.2,2.4h-1.7c-0.2-0.5-0.2-1.1-0.2-1.6c0-1,0.1-1.8-1.2-1.8h-0.4V65.4z M25.7,60.8h0.8c0.7,0,0.9-0.7,0.9-1.2
	c0-0.8-0.3-1.1-0.9-1.1h-0.8V60.8z"/>
<path fill="#002E5E" d="M30.4,65.4v-8.2h2.7l1.3,5.5h0l1.4-5.5h2.7v8.2h-1.7v-6.3h0l-1.6,6.3h-1.6l-1.5-6.3h0v6.3H30.4z"/>
<path fill="#002E5E" d="M39.5,65.4l2.3-8.2H44l2.2,8.2h-1.8L44,63.6h-2.3l-0.5,1.8H39.5z M42.8,58.9L42.8,58.9L42,62.4h1.6
	L42.8,58.9z"/>
<path fill="#002E5E" d="M51.6,57.3v1.4h-1.9v6.8H48v-6.8h-1.9v-1.4H51.6z"/>
<path fill="#002E5E" d="M52.7,65.4v-8.2h1.7v8.2H52.7z"/>
<path fill="#002E5E" d="M55.8,61.4c0-2.2,0-4.2,2.8-4.2c2.8,0,2.8,2.1,2.8,4.2c0,2.1,0,4.2-2.8,4.2C55.8,65.6,55.8,63.5,55.8,61.4z
	 M59.7,61.4c0-2.1-0.1-3-1.1-3c-1,0-1.1,0.9-1.1,3c0,2.1,0.1,3,1.1,3C59.6,64.4,59.7,63.5,59.7,61.4z"/>
<path fill="#002E5E" d="M62.8,65.4v-8.2h2.3l2.2,5.6h0v-5.6h1.6v8.2h-2.2l-2.2-6h0v6H62.8z"/>
<path fill="#FFCF01" d="M34.9,34.2L23.3,18.3v11.5h4.6v11.4H6.6V29.9h4.3V12.1H6.6V0.7h16.8l11.6,16l11.6-16h16.8v11.4h-4.3v17.8
	h4.3v11.4H41.9V29.9h4.6V18.3L34.9,34.2z"/>
</svg>
